<svg version="1.1" viewBox="0.0 0.0 405.78740157480314 405.78740157480314" fill="none" stroke="none" stroke-linecap="square" stroke-miterlimit="10" xmlns:xlink="http://www.w3.org/1999/xlink" xmlns="http://www.w3.org/2000/svg"><clipPath id="p.0"><path d="m0 0l405.7874 0l0 405.7874l-405.7874 0l0 -405.7874z" clip-rule="nonzero"/></clipPath><g clip-path="url(#p.0)"><path fill="#000000" fill-opacity="0.0" d="m0 0l405.7874 0l0 405.7874l-405.7874 0z" fill-rule="evenodd"/><path fill="#ff9900" d="m40.947666 93.4623c-30.104988 40.326775 -25.343395 119.85958 -21.84252 162.14697c3.5008736 42.287384 18.203848 71.5538 42.84777 91.57742c24.643917 20.02362 63.709095 24.783905 105.01575 28.5643c41.306656 3.7803955 107.81802 8.820648 142.82416 -5.881897c35.006104 -14.702515 57.97113 -33.605408 67.212585 -82.33331c9.241486 -48.72792 17.78128 -164.38626 -11.763763 -210.03412c-29.545074 -45.647858 -111.45758 -66.51312 -165.50658 -63.85302c-54.04898 2.6601048 -128.6824 39.486877 -158.7874 79.81365z" fill-rule="evenodd"/></g></svg>