<svg version="1.1" viewBox="0.0 0.0 405.78740157480314 405.78740157480314" fill="none" stroke="none" stroke-linecap="square" stroke-miterlimit="10" xmlns:xlink="http://www.w3.org/1999/xlink" xmlns="http://www.w3.org/2000/svg"><clipPath id="p.0"><path d="m0 0l405.7874 0l0 405.7874l-405.7874 0l0 -405.7874z" clip-rule="nonzero"/></clipPath><g clip-path="url(#p.0)"><path fill="#000000" fill-opacity="0.0" d="m0 0l405.7874 0l0 405.7874l-405.7874 0z" fill-rule="evenodd"/><path fill="#000000" fill-opacity="0.0" d="m40.947666 93.4623c-30.104988 40.326775 -25.343395 119.85958 -21.84252 162.14697c3.5008736 42.287384 18.203848 71.5538 42.84777 91.57742c24.643917 20.02362 63.709095 24.783905 105.01575 28.5643c41.306656 3.7803955 107.81802 8.820648 142.82416 -5.881897c35.006104 -14.702515 57.97113 -33.605408 67.212585 -82.33331c9.241486 -48.72792 17.78128 -164.38626 -11.763763 -210.03412c-29.545074 -45.647858 -111.45758 -66.51312 -165.50658 -63.85302c-54.04898 2.6601048 -128.6824 39.486877 -158.7874 79.81365z" fill-rule="evenodd"/><path stroke="#000000" stroke-width="16.0" stroke-linejoin="round" stroke-linecap="butt" d="m40.947666 93.4623c-30.104988 40.326775 -25.343395 119.85958 -21.84252 162.14697c3.5008736 42.287384 18.203848 71.5538 42.84777 91.57742c24.643917 20.02362 63.709095 24.783905 105.01575 28.5643c41.306656 3.7803955 107.81802 8.820648 142.82416 -5.881897c35.006104 -14.702515 57.97113 -33.605408 67.212585 -82.33331c9.241486 -48.72792 17.78128 -164.38626 -11.763763 -210.03412c-29.545074 -45.647858 -111.45758 -66.51312 -165.50658 -63.85302c-54.04898 2.6601048 -128.6824 39.486877 -158.7874 79.81365z" fill-rule="evenodd"/><path fill="#000000" d="m37.181103 206.92899l0 0c0 -20.212753 11.288063 -36.59842 25.212597 -36.59842l0 0c6.686798 0 13.099724 3.855896 17.828003 10.719421c4.728279 6.8635406 7.384598 16.1725 7.384598 25.878998l0 0c0 20.212753 -11.288063 36.598434 -25.2126 36.598434l0 0c-13.924534 0 -25.212597 -16.385681 -25.212597 -36.598434z" fill-rule="evenodd"/><path stroke="#000000" stroke-width="1.0" stroke-linejoin="round" stroke-linecap="butt" d="m37.181103 206.92899l0 0c0 -20.212753 11.288063 -36.59842 25.212597 -36.59842l0 0c6.686798 0 13.099724 3.855896 17.828003 10.719421c4.728279 6.8635406 7.384598 16.1725 7.384598 25.878998l0 0c0 20.212753 -11.288063 36.598434 -25.2126 36.598434l0 0c-13.924534 0 -25.212597 -16.385681 -25.212597 -36.598434z" fill-rule="evenodd"/><path fill="#000000" d="m144.28609 235.27821l0 0c0 -21.012909 12.536026 -38.04724 28.0 -38.04724l0 0c7.426071 0 14.547974 4.0085297 19.798996 11.143784c5.251007 7.1352386 8.201004 16.812698 8.201004 26.903458l0 0c0 21.012924 -12.536026 38.047256 -28.0 38.047256l0 0c-15.463974 0 -28.0 -17.034332 -28.0 -38.047256z" fill-rule="evenodd"/><path stroke="#000000" stroke-width="1.0" stroke-linejoin="round" stroke-linecap="butt" d="m144.28609 235.27821l0 0c0 -21.012909 12.536026 -38.04724 28.0 -38.04724l0 0c7.426071 0 14.547974 4.0085297 19.798996 11.143784c5.251007 7.1352386 8.201004 16.812698 8.201004 26.903458l0 0c0 21.012924 -12.536026 38.047256 -28.0 38.047256l0 0c-15.463974 0 -28.0 -17.034332 -28.0 -38.047256z" fill-rule="evenodd"/></g></svg>